<?xml version="1.0" encoding="UTF-8" standalone="no"?>
<!-- Created with Inkscape (http://www.inkscape.org/) -->
<svg xmlns:dc="http://purl.org/dc/elements/1.1/" xmlns:cc="http://creativecommons.org/ns#" xmlns:rdf="http://www.w3.org/1999/02/22-rdf-syntax-ns#" xmlns:svg="http://www.w3.org/2000/svg" xmlns="http://www.w3.org/2000/svg" xmlns:sodipodi="http://sodipodi.sourceforge.net/DTD/sodipodi-0.dtd" xmlns:inkscape="http://www.inkscape.org/namespaces/inkscape" width="1771.6536" height="1771.6536" id="svg2" sodipodi:version="0.32" inkscape:version="0.46" version="1.0" sodipodi:docname="25m.svg" inkscape:output_extension="org.inkscape.output.svg.inkscape">
  <defs id="defs4">
    <inkscape:perspective sodipodi:type="inkscape:persp3d" inkscape:vp_x="0 : 526.18109 : 1" inkscape:vp_y="0 : 1000 : 0" inkscape:vp_z="744.09448 : 526.18109 : 1" inkscape:persp3d-origin="372.04724 : 350.78739 : 1" id="perspective10"/>
  </defs>
  <sodipodi:namedview id="base" pagecolor="#ffffff" bordercolor="#666666" borderopacity="1.0" gridtolerance="10000" guidetolerance="10" objecttolerance="10" inkscape:pageopacity="0.0" inkscape:pageshadow="2" inkscape:zoom="0.24748737" inkscape:cx="939.77498" inkscape:cy="793.53629" inkscape:document-units="px" inkscape:current-layer="layer1" showgrid="false" inkscape:window-width="921" inkscape:window-height="677" inkscape:window-x="76" inkscape:window-y="244"/>
  <metadata id="metadata7">
    <rdf:RDF>
      <cc:Work rdf:about="">
        <dc:format>image/svg+xml</dc:format>
        <dc:type rdf:resource="http://purl.org/dc/dcmitype/StillImage"/>
      </cc:Work>
    </rdf:RDF>
  </metadata>
  <g inkscape:label="Layer 1" inkscape:groupmode="layer" id="layer1" transform="translate(-110.42857,941.14848)">
    <path transform="matrix(3.2012324,0,0,3.2012324,-462.59203,-2038.5014)" style="fill:none;stroke:#1a1a1a;stroke-width:2;stroke-linecap:butt;stroke-linejoin:miter;stroke-miterlimit:4;stroke-opacity:1" d="M 731.42859,619.50507 C 731.42859,771.69936 607.90858,895.21936 455.71429,895.21936 C 303.52,895.21936 180,771.69936 180,619.50507 C 180,467.31078 303.52,343.79077 455.71429,343.79077 C 607.90858,343.79077 731.42859,467.31078 731.42859,619.50507 z" id="path3156"/>
    <path transform="matrix(3.5842701,0,0,3.5842701,-1466.6503,-3000.35)" style="fill:none;stroke:#1a1a1a;stroke-width:2;stroke-linecap:butt;stroke-linejoin:miter;stroke-miterlimit:4;stroke-opacity:1" d="M 908.57146,821.65356 C 908.57146,943.88214 809.37146,1043.0821 687.14288,1043.0821 C 564.91431,1043.0821 465.71431,943.88214 465.71431,821.65356 C 465.71431,699.42499 564.91431,600.22499 687.14288,600.22499 C 809.37146,600.22499 908.57146,699.42499 908.57146,821.65356 z" id="path3160"/>
    <path transform="matrix(2.4965424,0,0,2.4965424,-1079.4414,-2238.5747)" style="fill:none;stroke:#1a1a1a;stroke-width:2;stroke-linecap:butt;stroke-linejoin:miter;stroke-miterlimit:4;stroke-opacity:1" d="M 1114.2857,874.51068 C 1114.2857,1030.6478 987.56573,1157.3678 831.42859,1157.3678 C 675.29144,1157.3678 548.57144,1030.6478 548.57144,874.51068 C 548.57144,718.37354 675.29144,591.65353 831.42859,591.65353 C 987.56573,591.65353 1114.2857,718.37354 1114.2857,874.51068 z" id="path3162"/>
    <path transform="matrix(1.849404,0,0,1.849404,-588.94812,-1545.829)" style="fill:none;stroke:#1a1a1a;stroke-width:2;stroke-linecap:butt;stroke-linejoin:miter;stroke-miterlimit:4;stroke-opacity:1" d="M 1191.4286,805.93927 C 1191.4286,990.46498 1041.6686,1140.225 857.14288,1140.225 C 672.61717,1140.225 522.85718,990.46498 522.85718,805.93927 C 522.85718,621.41356 672.61717,471.65356 857.14288,471.65356 C 1041.6686,471.65356 1191.4286,621.41356 1191.4286,805.93927 z" id="path3166"/>
    <path transform="matrix(1.6598453,0,0,1.6598453,-392.04973,-1661.3418)" style="fill:none;stroke:#1a1a1a;stroke-width:2;stroke-linecap:butt;stroke-linejoin:miter;stroke-miterlimit:4;stroke-opacity:1" d="M 1155.6145,967.57214 C 1155.6145,1143.7751 1012.6092,1286.7803 836.40631,1286.7803 C 660.20339,1286.7803 517.19812,1143.7751 517.19812,967.57214 C 517.19812,791.36922 660.20339,648.36395 836.40631,648.36395 C 1012.6092,648.36395 1155.6145,791.36922 1155.6145,967.57214 z" id="path3168"/>
    <path transform="matrix(1.3491552,0,0,1.3491552,-339.34011,-1349.8238)" style="fill:none;stroke:#1a1a1a;stroke-width:2;stroke-linecap:butt;stroke-linejoin:miter;stroke-miterlimit:4;stroke-opacity:1" d="M 1317.2389,959.49091 C 1317.2389,1140.1547 1170.6132,1286.7803 989.94946,1286.7803 C 809.2857,1286.7803 662.66003,1140.1547 662.66003,959.49091 C 662.66003,778.82714 809.2857,632.20148 989.94946,632.20148 C 1170.6132,632.20148 1317.2389,778.82714 1317.2389,959.49091 z" id="path3170"/>
    <path transform="matrix(1.4087697,0,0,1.4087697,-312.97115,-1367.1774)" style="fill:#000000;stroke:#1a1a1a;stroke-width:2;stroke-linecap:butt;stroke-linejoin:miter;stroke-miterlimit:4;stroke-opacity:1" d="M 1179.8582,931.20667 C 1179.8582,1069.4925 1067.6262,1181.7245 929.34033,1181.7245 C 791.05449,1181.7245 678.82249,1069.4925 678.82249,931.20667 C 678.82249,792.92082 791.05449,680.68883 929.34033,680.68883 C 1067.6262,680.68883 1179.8582,792.92082 1179.8582,931.20667 z" id="path3172"/>
    <path transform="matrix(1.335485,0,0,1.335485,-282.63798,-1282.7457)" style="fill:none;stroke:#ffffff;stroke-width:2;stroke-linecap:butt;stroke-linejoin:miter;stroke-miterlimit:4;stroke-opacity:1" d="M 1155.6145,919.08484 C 1155.6145,1028.3753 1066.9151,1117.0747 957.62463,1117.0747 C 848.33421,1117.0747 759.63474,1028.3753 759.63474,919.08484 C 759.63474,809.79441 848.33421,721.09494 957.62463,721.09494 C 1066.9151,721.09494 1155.6145,809.79441 1155.6145,919.08484 z" id="path3174"/>
    <path transform="matrix(1.1771583,0,0,1.1771583,-45.404512,-1141.9865)" style="fill:none;stroke:#ffffff;stroke-width:2;stroke-linecap:butt;stroke-linejoin:miter;stroke-miterlimit:4;stroke-opacity:1" d="M 1034.3962,923.12543 C 1034.3962,1005.6509 967.41904,1072.628 884.89362,1072.628 C 802.36819,1072.628 735.39104,1005.6509 735.39104,923.12543 C 735.39104,840.6 802.36819,773.62285 884.89362,773.62285 C 967.41904,773.62285 1034.3962,840.6 1034.3962,923.12543 z" id="path3176"/>
    <path transform="matrix(1.3921645,0,0,1.3921645,-255.35033,-1281.3996)" style="fill:none;stroke:#ffffff;stroke-width:2;stroke-linecap:butt;stroke-linejoin:miter;stroke-miterlimit:4;stroke-opacity:1" d="M 961.66523,880.69904 C 961.66523,915.2705 933.60723,943.3285 899.03577,943.3285 C 864.46431,943.3285 836.40631,915.2705 836.40631,880.69904 C 836.40631,846.12757 864.46431,818.06958 899.03577,818.06958 C 933.60723,818.06958 961.66523,846.12757 961.66523,880.69904 z" id="path3178"/>
    <path style="font-size:40px;font-style:normal;font-weight:normal;fill:#000000;fill-opacity:1;stroke:none;stroke-width:1px;stroke-linecap:butt;stroke-linejoin:miter;stroke-opacity:1;font-family:Bitstream Vera Sans" d="M 1005.7476,-868.35205 L 999.41936,-868.35205 L 999.41936,-908.67627 C 997.89591,-907.22311 995.89786,-905.76998 993.42522,-904.31689 C 990.95255,-902.86374 988.73185,-901.77389 986.76311,-901.04736 L 986.76311,-907.16455 C 990.30216,-908.82857 993.39591,-910.8442 996.04436,-913.21143 C 998.69278,-915.57857 1000.5678,-917.87544 1001.6694,-920.10205 L 1005.7476,-920.10205 L 1005.7476,-868.35205 z" id="text3180"/>
    <path style="font-size:40px;font-style:normal;font-weight:normal;fill:#000000;fill-opacity:1;stroke:none;stroke-width:1px;stroke-linecap:butt;stroke-linejoin:miter;stroke-opacity:1;font-family:Bitstream Vera Sans" d="M 1013.3237,-784.12878 L 1013.3237,-778.04675 L 979.25732,-778.04675 C 979.21045,-779.57019 979.45654,-781.03503 979.99561,-782.44128 C 980.86279,-784.76159 982.25146,-787.04674 984.16162,-789.29675 C 986.07177,-791.54674 988.83153,-794.1483 992.44092,-797.10144 C 998.04246,-801.69517 1001.8276,-805.33384 1003.7964,-808.01746 C 1005.7651,-810.70102 1006.7495,-813.23812 1006.7495,-815.62878 C 1006.7495,-818.13656 1005.853,-820.25179 1004.0601,-821.97449 C 1002.2671,-823.6971 999.92918,-824.55843 997.04639,-824.55847 C 993.99949,-824.55843 991.562,-823.64436 989.73389,-821.81628 C 987.90575,-819.98812 986.97997,-817.45687 986.95654,-814.22253 L 980.45264,-814.8905 C 980.89795,-819.74202 982.57372,-823.43929 985.47998,-825.9823 C 988.38622,-828.52522 992.28856,-829.7967 997.18701,-829.79675 C 1002.1323,-829.7967 1006.0464,-828.42561 1008.9292,-825.68347 C 1011.812,-822.94124 1013.2534,-819.54281 1013.2534,-815.48816 C 1013.2534,-813.42562 1012.8315,-811.39828 1011.9878,-809.40613 C 1011.144,-807.41391 1009.7436,-805.31626 1007.7866,-803.11316 C 1005.8296,-800.91001 1002.5776,-797.88658 998.03076,-794.04285 C 994.23387,-790.85533 991.79637,-788.69323 990.71826,-787.55652 C 989.64012,-786.41979 988.7495,-785.27721 988.04639,-784.12878 L 1013.3237,-784.12878 z" id="text3184"/>
    <path style="font-size:40px;font-style:normal;font-weight:normal;fill:#000000;fill-opacity:1;stroke:none;stroke-width:1px;stroke-linecap:butt;stroke-linejoin:miter;stroke-opacity:1;font-family:Bitstream Vera Sans" d="M 979.38037,-705.72833 L 985.7085,-706.57208 C 986.43505,-702.98613 987.67138,-700.40215 989.41748,-698.82013 C 991.16356,-697.23809 993.29051,-696.44708 995.79834,-696.44708 C 998.77488,-696.44708 1001.2885,-697.47833 1003.3394,-699.54083 C 1005.3901,-701.60332 1006.4155,-704.15801 1006.4155,-707.2049 C 1006.4155,-710.11113 1005.4663,-712.50761 1003.5679,-714.39435 C 1001.6694,-716.28104 999.25535,-717.2244 996.32568,-717.22443 C 995.13035,-717.2244 993.64207,-716.99003 991.86084,-716.5213 L 992.56396,-722.07599 C 992.98582,-722.02908 993.32567,-722.00565 993.5835,-722.00568 C 996.27879,-722.00565 998.70457,-722.70877 1000.8608,-724.11505 C 1003.0171,-725.52127 1004.0952,-727.68923 1004.0952,-730.61896 C 1004.0952,-732.93923 1003.31,-734.8611 1001.7397,-736.38458 C 1000.1694,-737.90797 998.14207,-738.66969 995.65771,-738.66974 C 993.19676,-738.66969 991.14598,-737.89626 989.50537,-736.34943 C 987.86473,-734.80251 986.81005,-732.4822 986.34131,-729.38849 L 980.01318,-730.51349 C 980.78662,-734.75563 982.54443,-738.04274 985.28662,-740.37482 C 988.0288,-742.7068 991.43895,-743.87281 995.51709,-743.87286 C 998.32957,-743.87281 1000.9194,-743.2693 1003.2866,-742.06232 C 1005.6538,-740.85524 1007.4643,-739.20875 1008.7183,-737.12286 C 1009.9721,-735.03688 1010.5991,-732.82204 1010.5991,-730.47833 C 1010.5991,-728.25173 1010.0014,-726.22439 1008.8062,-724.3963 C 1007.6108,-722.56815 1005.8413,-721.11502 1003.4976,-720.03693 C 1006.5444,-719.33377 1008.9116,-717.87479 1010.5991,-715.65997 C 1012.2866,-713.44511 1013.1303,-710.67363 1013.1304,-707.34552 C 1013.1303,-702.84551 1011.4897,-699.03106 1008.2085,-695.90216 C 1004.9272,-692.77325 1000.7788,-691.2088 995.76318,-691.2088 C 991.23973,-691.2088 987.48388,-692.55646 984.49561,-695.25177 C 981.50732,-697.94708 979.80224,-701.43926 979.38037,-705.72833 L 979.38037,-705.72833 z" id="text3188"/>
    <path style="font-size:40px;font-style:normal;font-weight:normal;fill:#000000;fill-opacity:1;stroke:none;stroke-width:1px;stroke-linecap:butt;stroke-linejoin:miter;stroke-opacity:1;font-family:Bitstream Vera Sans" d="M 1000.7905,-603.27002 L 1000.7905,-615.60986 L 978.43115,-615.60986 L 978.43115,-621.41064 L 1001.9507,-654.80908 L 1007.1187,-654.80908 L 1007.1187,-621.41064 L 1014.0796,-621.41064 L 1014.0796,-615.60986 L 1007.1187,-615.60986 L 1007.1187,-603.27002 L 1000.7905,-603.27002 z M 1000.7905,-621.41064 L 1000.7905,-644.64893 L 984.65381,-621.41064 L 1000.7905,-621.41064 z" id="text3192"/>
    <path style="font-size:40px;font-style:normal;font-weight:normal;fill:#000000;fill-opacity:1;stroke:none;stroke-width:1px;stroke-linecap:butt;stroke-linejoin:miter;stroke-opacity:1;font-family:Bitstream Vera Sans" d="M 979.16943,-528.82587 L 985.81396,-529.38837 C 986.30614,-526.15398 987.44872,-523.72234 989.2417,-522.09344 C 991.03465,-520.46453 993.19676,-519.65008 995.72803,-519.65009 C 998.77488,-519.65008 1001.353,-520.79852 1003.4624,-523.0954 C 1005.5717,-525.39226 1006.6264,-528.43913 1006.6265,-532.23602 C 1006.6264,-535.84538 1005.6128,-538.69303 1003.5854,-540.77899 C 1001.5581,-542.8649 998.90379,-543.90787 995.62256,-543.9079 C 993.58348,-543.90787 991.74364,-543.44498 990.10303,-542.51923 C 988.46239,-541.59342 987.17333,-540.39225 986.23584,-538.91571 L 980.29443,-539.68915 L 985.28662,-566.1618 L 1010.9155,-566.1618 L 1010.9155,-560.11493 L 990.34912,-560.11493 L 987.57178,-546.26337 C 990.66551,-548.41958 993.9116,-549.49771 997.31006,-549.49774 C 1001.81,-549.49771 1005.6069,-547.93912 1008.7007,-544.82196 C 1011.7944,-541.70475 1013.3413,-537.69694 1013.3413,-532.79852 C 1013.3413,-528.13445 1011.9819,-524.1032 1009.2632,-520.70477 C 1005.9585,-516.5329 1001.4468,-514.44696 995.72803,-514.44696 C 991.04051,-514.44696 987.21434,-515.75946 984.24951,-518.38446 C 981.28466,-521.00945 979.59131,-524.48992 979.16943,-528.82587 L 979.16943,-528.82587 z" id="text3196"/>
    <path style="font-size:40px;font-style:normal;font-weight:normal;fill:#000000;fill-opacity:1;stroke:none;stroke-width:1px;stroke-linecap:butt;stroke-linejoin:miter;stroke-opacity:1;font-family:Bitstream Vera Sans" d="M 1012.3569,-466.44177 L 1006.064,-465.94958 C 1005.5014,-468.43392 1004.7046,-470.2386 1003.6733,-471.36365 C 1001.9624,-473.16829 999.853,-474.07063 997.34521,-474.07068 C 995.32957,-474.07063 993.56004,-473.50813 992.03662,-472.38318 C 990.04442,-470.93001 988.47411,-468.80892 987.32568,-466.0199 C 986.17724,-463.2308 985.57958,-459.25815 985.53271,-454.10193 C 987.05614,-456.42221 988.91942,-458.14487 991.12256,-459.2699 C 993.32567,-460.39486 995.63426,-460.95736 998.04834,-460.9574 C 1002.2671,-460.95736 1005.8589,-459.40463 1008.8237,-456.29919 C 1011.7885,-453.1937 1013.271,-449.18003 1013.271,-444.25818 C 1013.271,-441.02379 1012.5737,-438.01793 1011.1792,-435.2406 C 1009.7846,-432.46325 1007.8686,-430.3363 1005.4312,-428.85974 C 1002.9936,-427.38318 1000.228,-426.6449 997.13428,-426.6449 C 991.86082,-426.6449 987.56005,-428.58435 984.23193,-432.46326 C 980.9038,-436.34215 979.23974,-442.73473 979.23975,-451.64099 C 979.23974,-461.60189 981.07959,-468.84407 984.75928,-473.36755 C 987.9702,-477.305 992.29442,-479.27375 997.73193,-479.2738 C 1001.7866,-479.27375 1005.1089,-478.13703 1007.6987,-475.86365 C 1010.2885,-473.59016 1011.8413,-470.44954 1012.3569,-466.44177 L 1012.3569,-466.44177 z M 986.51709,-444.22302 C 986.51708,-442.04332 986.97997,-439.95739 987.90576,-437.96521 C 988.83153,-435.97301 990.12645,-434.45544 991.79053,-433.41248 C 993.45457,-432.3695 995.20066,-431.84802 997.02881,-431.84802 C 999.70066,-431.84802 1001.9975,-432.92614 1003.9194,-435.0824 C 1005.8413,-437.23864 1006.8022,-440.16832 1006.8022,-443.87146 C 1006.8022,-447.43394 1005.853,-450.24058 1003.9546,-452.29138 C 1002.0561,-454.34214 999.6655,-455.36753 996.78271,-455.36755 C 993.92332,-455.36753 991.49754,-454.34214 989.50537,-452.29138 C 987.51317,-450.24058 986.51708,-447.55113 986.51709,-444.22302 L 986.51709,-444.22302 z" id="text3200"/>
    <path style="font-size:40px;font-style:normal;font-weight:normal;fill:#ffffff;fill-opacity:1;stroke:none;stroke-width:1px;stroke-linecap:butt;stroke-linejoin:miter;stroke-opacity:1;font-family:Bitstream Vera Sans" d="M 979.57373,-382.24686 L 979.57373,-388.32889 L 1012.937,-388.32889 L 1012.937,-383.40701 C 1009.6557,-379.91478 1006.4038,-375.27416 1003.1812,-369.48514 C 999.95847,-363.69605 997.46824,-357.74293 995.71045,-351.62576 C 994.44481,-347.31325 993.63621,-342.5906 993.28467,-337.45779 L 986.78076,-337.45779 C 986.85106,-341.51248 987.64794,-346.41091 989.17139,-352.15311 C 990.69481,-357.89527 992.88035,-363.43238 995.72803,-368.76443 C 998.57566,-374.09643 1001.605,-378.59057 1004.8159,-382.24686 L 979.57373,-382.24686 z" id="text3204"/>
    <path style="font-size:40px;font-style:normal;font-weight:normal;fill:#ffffff;fill-opacity:1;stroke:none;stroke-width:1px;stroke-linecap:butt;stroke-linejoin:miter;stroke-opacity:1;font-family:Bitstream Vera Sans" d="M 989.0835,-276.5948 C 986.45849,-277.55571 984.51318,-278.9268 983.24756,-280.70808 C 981.98193,-282.4893 981.34912,-284.62211 981.34912,-287.10652 C 981.34912,-290.85648 982.69677,-294.00882 985.39209,-296.56355 C 988.08739,-299.11819 991.67332,-300.39553 996.1499,-300.39558 C 1000.6499,-300.39553 1004.271,-299.08889 1007.0132,-296.47566 C 1009.7553,-293.86234 1011.1264,-290.6807 1011.1265,-286.93074 C 1011.1264,-284.54008 1010.4995,-282.46 1009.2456,-280.69051 C 1007.9917,-278.92094 1006.0874,-277.55571 1003.5327,-276.5948 C 1006.6967,-275.56353 1009.1049,-273.89947 1010.7573,-271.60262 C 1012.4096,-269.30572 1013.2358,-266.56353 1013.2358,-263.37605 C 1013.2358,-258.96979 1011.6772,-255.26667 1008.5601,-252.26668 C 1005.4428,-249.26668 1001.3413,-247.76668 996.25537,-247.76668 C 991.16942,-247.76668 987.06786,-249.27254 983.95068,-252.28426 C 980.83349,-255.29597 979.2749,-259.05182 979.2749,-263.55183 C 979.2749,-266.90338 980.12451,-269.71002 981.82373,-271.97176 C 983.52294,-274.23345 985.94286,-275.77446 989.0835,-276.5948 L 989.0835,-276.5948 z M 987.81787,-287.31746 C 987.81786,-284.87992 988.60302,-282.88774 990.17334,-281.3409 C 991.74364,-279.79399 993.7827,-279.02055 996.29053,-279.02058 C 998.728,-279.02055 1000.726,-279.78813 1002.2847,-281.32332 C 1003.8432,-282.85844 1004.6225,-284.7393 1004.6226,-286.9659 C 1004.6225,-289.28617 1003.8198,-291.23734 1002.2144,-292.81941 C 1000.6089,-294.4014 998.61082,-295.19241 996.22021,-295.19246 C 993.80613,-295.19241 991.80223,-294.41898 990.2085,-292.87215 C 988.61473,-291.32523 987.81786,-289.47367 987.81787,-287.31746 L 987.81787,-287.31746 z M 985.77881,-263.51668 C 985.7788,-261.71198 986.20653,-259.96589 987.06201,-258.2784 C 987.91747,-256.59089 989.18895,-255.28425 990.87646,-254.35847 C 992.56395,-253.43269 994.38035,-252.9698 996.32568,-252.9698 C 999.3491,-252.9698 1001.8452,-253.94245 1003.814,-255.88777 C 1005.7827,-257.83307 1006.7671,-260.30573 1006.7671,-263.30574 C 1006.7671,-266.3526 1005.7534,-268.87213 1003.7261,-270.86433 C 1001.6987,-272.8565 999.1616,-273.85259 996.11475,-273.85262 C 993.13817,-273.85259 990.67137,-272.86822 988.71436,-270.89949 C 986.75731,-268.93072 985.7788,-266.46979 985.77881,-263.51668 L 985.77881,-263.51668 z" id="text3208"/>
    <path style="font-size:40px;font-style:normal;font-weight:normal;fill:#ffffff;fill-opacity:1;stroke:none;stroke-width:1px;stroke-linecap:butt;stroke-linejoin:miter;stroke-opacity:1;font-family:Bitstream Vera Sans" d="M 980.25928,-173.89348 L 986.34131,-174.45598 C 986.85692,-171.59659 987.8413,-169.52238 989.29443,-168.23332 C 990.74754,-166.94425 992.61082,-166.29972 994.88428,-166.29973 C 996.82957,-166.29972 998.53465,-166.74504 999.99951,-167.63567 C 1001.4643,-168.52628 1002.6655,-169.71574 1003.603,-171.20403 C 1004.5405,-172.6923 1005.3257,-174.70206 1005.9585,-177.23332 C 1006.5913,-179.76455 1006.9077,-182.34268 1006.9077,-184.9677 C 1006.9077,-185.24892 1006.896,-185.6708 1006.8726,-186.23332 C 1005.6069,-184.21767 1003.8784,-182.58291 1001.687,-181.32903 C 999.49558,-180.0751 997.12254,-179.44815 994.56787,-179.44817 C 990.30223,-179.44815 986.69286,-180.99502 983.73975,-184.08879 C 980.78662,-187.18252 979.31006,-191.26064 979.31006,-196.32317 C 979.31006,-201.54969 980.85107,-205.75672 983.93311,-208.94426 C 987.01513,-212.13171 990.87645,-213.72546 995.51709,-213.72551 C 998.86863,-213.72546 1001.9331,-212.82312 1004.7104,-211.01848 C 1007.4878,-209.21374 1009.5971,-206.64148 1011.0386,-203.30168 C 1012.4799,-199.9618 1013.2006,-195.12782 1013.2007,-188.79973 C 1013.2006,-182.21377 1012.4858,-176.96964 1011.0562,-173.06731 C 1009.6264,-169.16496 1007.4995,-166.19426 1004.6753,-164.1552 C 1001.851,-162.11613 998.54051,-161.0966 994.74365,-161.0966 C 990.71239,-161.0966 987.41942,-162.21574 984.86475,-164.45403 C 982.31005,-166.6923 980.7749,-169.83878 980.25928,-173.89348 L 980.25928,-173.89348 z M 1006.1694,-196.63957 C 1006.1694,-200.27235 1005.2026,-203.15516 1003.269,-205.28801 C 1001.3354,-207.42078 999.00925,-208.48718 996.29053,-208.48723 C 993.47801,-208.48718 991.02879,-207.33875 988.94287,-205.04192 C 986.85692,-202.745 985.81396,-199.76844 985.81396,-196.11223 C 985.81396,-192.83095 986.80419,-190.16493 988.78467,-188.11418 C 990.76512,-186.06338 993.20848,-185.03799 996.11475,-185.03801 C 999.04441,-185.03799 1001.4526,-186.06338 1003.3394,-188.11418 C 1005.226,-190.16493 1006.1694,-193.00673 1006.1694,-196.63957 L 1006.1694,-196.63957 z" id="text3212"/>
    <path transform="matrix(1.1853541,0,0,1.1853541,-76.604708,-1130.394)" style="fill:none;stroke:#ffffff;stroke-width:2;stroke-linecap:butt;stroke-linejoin:miter;stroke-miterlimit:4;stroke-opacity:1" d="M 941.46217,906.96301 C 941.46217,927.03676 925.17043,943.3285 905.09668,943.3285 C 885.02293,943.3285 868.73119,927.03676 868.73119,906.96301 C 868.73119,886.88926 885.02293,870.59752 905.09668,870.59752 C 925.17043,870.59752 941.46217,886.88926 941.46217,906.96301 z" id="path3216"/>
    <path style="font-size:40px;font-style:normal;font-weight:normal;fill:#ffffff;fill-opacity:1;stroke:none;stroke-width:1px;stroke-linecap:butt;stroke-linejoin:miter;stroke-opacity:1;font-family:Bitstream Vera Sans" d="M 980.25928,88.347328 L 986.34131,87.784828 C 986.85692,90.644213 987.8413,92.718429 989.29443,94.007484 C 990.74754,95.296552 992.61082,95.941083 994.88428,95.941078 C 996.82957,95.941083 998.53465,95.49577 999.99951,94.605141 C 1001.4643,93.714522 1002.6655,92.52507 1003.603,91.036781 C 1004.5405,89.548511 1005.3257,87.538747 1005.9585,85.007484 C 1006.5913,82.476252 1006.9077,79.89813 1006.9077,77.273109 C 1006.9077,76.991883 1006.896,76.570008 1006.8726,76.007484 C 1005.6069,78.023132 1003.8784,79.657896 1001.687,80.911781 C 999.49558,82.165706 997.12254,82.792658 994.56787,82.792641 C 990.30223,82.792658 986.69286,81.245785 983.73975,78.152016 C 980.78662,75.058291 979.31006,70.98017 979.31006,65.917641 C 979.31006,60.691118 980.85107,56.484091 983.93311,53.296547 C 987.01513,50.109097 990.87645,48.515349 995.51709,48.515297 C 998.86863,48.515349 1001.9331,49.417692 1004.7104,51.222328 C 1007.4878,53.027063 1009.5971,55.599326 1011.0386,58.939125 C 1012.4799,62.279007 1013.2006,67.112986 1013.2007,73.441078 C 1013.2006,80.027036 1012.4858,85.271171 1011.0562,89.1735 C 1009.6264,93.075851 1007.4995,96.046551 1004.6753,98.085609 C 1001.851,100.12467 998.54051,101.1442 994.74365,101.1442 C 990.71239,101.1442 987.41942,100.02506 984.86475,97.786781 C 982.31005,95.548505 980.7749,92.402024 980.25928,88.347328 L 980.25928,88.347328 z M 1006.1694,65.601234 C 1006.1694,61.96846 1005.2026,59.085651 1003.269,56.952797 C 1001.3354,54.82003 999.00925,53.753625 996.29053,53.753578 C 993.47801,53.753625 991.02879,54.902061 988.94287,57.198891 C 986.85692,59.495806 985.81396,62.472366 985.81396,66.128578 C 985.81396,69.409859 986.80419,72.075872 988.78467,74.126625 C 990.76512,76.17743 993.20848,77.20282 996.11475,77.202797 C 999.04441,77.20282 1001.4526,76.17743 1003.3394,74.126625 C 1005.226,72.075872 1006.1694,69.234078 1006.1694,65.601234 L 1006.1694,65.601234 z" id="text3218"/>
    <path style="font-size:40px;font-style:normal;font-weight:normal;fill:#ffffff;fill-opacity:1;stroke:none;stroke-width:1px;stroke-linecap:butt;stroke-linejoin:miter;stroke-opacity:1;font-family:Bitstream Vera Sans" d="M 989.0835,161.25012 C 986.45849,160.28921 984.51318,158.91812 983.24756,157.13684 C 981.98193,155.35562 981.34912,153.22281 981.34912,150.7384 C 981.34912,146.98845 982.69677,143.8361 985.39209,141.28137 C 988.08739,138.72674 991.67332,137.44939 996.1499,137.44934 C 1000.6499,137.44939 1004.271,138.75603 1007.0132,141.36926 C 1009.7553,143.98259 1011.1264,147.16423 1011.1265,150.91418 C 1011.1264,153.30485 1010.4995,155.38492 1009.2456,157.15442 C 1007.9917,158.92398 1006.0874,160.28921 1003.5327,161.25012 C 1006.6967,162.2814 1009.1049,163.94546 1010.7573,166.24231 C 1012.4096,168.53921 1013.2358,171.28139 1013.2358,174.46887 C 1013.2358,178.87513 1011.6772,182.57825 1008.5601,185.57825 C 1005.4428,188.57825 1001.3413,190.07825 996.25537,190.07825 C 991.16942,190.07825 987.06786,188.57239 983.95068,185.56067 C 980.83349,182.54896 979.2749,178.7931 979.2749,174.29309 C 979.2749,170.94155 980.12451,168.13491 981.82373,165.87317 C 983.52294,163.61148 985.94286,162.07046 989.0835,161.25012 L 989.0835,161.25012 z M 987.81787,150.52747 C 987.81786,152.965 988.60302,154.95719 990.17334,156.50403 C 991.74364,158.05093 993.7827,158.82437 996.29053,158.82434 C 998.728,158.82437 1000.726,158.05679 1002.2847,156.52161 C 1003.8432,154.98648 1004.6225,153.10563 1004.6226,150.87903 C 1004.6225,148.55876 1003.8198,146.60759 1002.2144,145.02551 C 1000.6089,143.44353 998.61082,142.65251 996.22021,142.65247 C 993.80613,142.65251 991.80223,143.42595 990.2085,144.97278 C 988.61473,146.5197 987.81786,148.37126 987.81787,150.52747 L 987.81787,150.52747 z M 985.77881,174.32825 C 985.7788,176.13295 986.20653,177.87904 987.06201,179.56653 C 987.91747,181.25404 989.18895,182.56068 990.87646,183.48645 C 992.56395,184.41224 994.38035,184.87513 996.32568,184.87512 C 999.3491,184.87513 1001.8452,183.90247 1003.814,181.95715 C 1005.7827,180.01185 1006.7671,177.5392 1006.7671,174.53918 C 1006.7671,171.49233 1005.7534,168.9728 1003.7261,166.98059 C 1001.6987,164.98843 999.1616,163.99233 996.11475,163.99231 C 993.13817,163.99233 990.67137,164.97671 988.71436,166.94543 C 986.75731,168.9142 985.7788,171.37514 985.77881,174.32825 L 985.77881,174.32825 z" id="text3222"/>
    <path style="font-size:40px;font-style:normal;font-weight:normal;fill:#ffffff;fill-opacity:1;stroke:none;stroke-width:1px;stroke-linecap:butt;stroke-linejoin:miter;stroke-opacity:1;font-family:Bitstream Vera Sans" d="M 979.57373,233.26309 L 979.57373,227.18106 L 1012.937,227.18106 L 1012.937,232.10294 C 1009.6557,235.59517 1006.4038,240.23579 1003.1812,246.02481 C 999.95847,251.8139 997.46824,257.76702 995.71045,263.88419 C 994.44481,268.1967 993.63621,272.91935 993.28467,278.05215 L 986.78076,278.05215 C 986.85106,273.99747 987.64794,269.09904 989.17139,263.35684 C 990.69481,257.61467 992.88035,252.07757 995.72803,246.74551 C 998.57566,241.41352 1001.605,236.91938 1004.8159,233.26309 L 979.57373,233.26309 z" id="text3226"/>
    <path style="font-size:40px;font-style:normal;font-weight:normal;fill:#000000;fill-opacity:1;stroke:none;stroke-width:1px;stroke-linecap:butt;stroke-linejoin:miter;stroke-opacity:1;font-family:Bitstream Vera Sans" d="M 1012.3569,328.06821 L 1006.064,328.56039 C 1005.5014,326.07606 1004.7046,324.27137 1003.6733,323.14633 C 1001.9624,321.34169 999.853,320.43935 997.34521,320.4393 C 995.32957,320.43935 993.56004,321.00185 992.03662,322.1268 C 990.04442,323.57997 988.47411,325.70106 987.32568,328.49008 C 986.17724,331.27918 985.57958,335.25183 985.53271,340.40805 C 987.05614,338.08777 988.91942,336.36511 991.12256,335.24008 C 993.32567,334.11511 995.63426,333.55262 998.04834,333.55258 C 1002.2671,333.55262 1005.8589,335.10535 1008.8237,338.21078 C 1011.7885,341.31628 1013.271,345.32995 1013.271,350.2518 C 1013.271,353.48619 1012.5737,356.49205 1011.1792,359.26938 C 1009.7846,362.04673 1007.8686,364.17368 1005.4312,365.65024 C 1002.9936,367.1268 1000.228,367.86508 997.13428,367.86508 C 991.86082,367.86508 987.56005,365.92563 984.23193,362.04672 C 980.9038,358.16782 979.23974,351.77525 979.23975,342.86899 C 979.23974,332.90808 981.07959,325.6659 984.75928,321.14243 C 987.9702,317.20498 992.29442,315.23623 997.73193,315.23618 C 1001.7866,315.23623 1005.1089,316.37294 1007.6987,318.64633 C 1010.2885,320.91982 1011.8413,324.06044 1012.3569,328.06821 L 1012.3569,328.06821 z M 986.51709,350.28696 C 986.51708,352.46666 986.97997,354.55259 987.90576,356.54477 C 988.83153,358.53697 990.12645,360.05454 991.79053,361.0975 C 993.45457,362.14048 995.20066,362.66196 997.02881,362.66196 C 999.70066,362.66196 1001.9975,361.58384 1003.9194,359.42758 C 1005.8413,357.27134 1006.8022,354.34166 1006.8022,350.63852 C 1006.8022,347.07604 1005.853,344.2694 1003.9546,342.2186 C 1002.0561,340.16784 999.6655,339.14245 996.78271,339.14243 C 993.92332,339.14245 991.49754,340.16784 989.50537,342.2186 C 987.51317,344.2694 986.51708,346.95885 986.51709,350.28696 L 986.51709,350.28696 z" id="text3230"/>
    <path style="font-size:40px;font-style:normal;font-weight:normal;fill:#000000;fill-opacity:1;stroke:none;stroke-width:1px;stroke-linecap:butt;stroke-linejoin:miter;stroke-opacity:1;font-family:Bitstream Vera Sans" d="M 979.16943,441.9632 L 985.81396,441.4007 C 986.30614,444.63508 987.44872,447.06672 989.2417,448.69562 C 991.03465,450.32453 993.19676,451.13898 995.72803,451.13898 C 998.77488,451.13898 1001.353,449.99055 1003.4624,447.69366 C 1005.5717,445.3968 1006.6264,442.34993 1006.6265,438.55304 C 1006.6264,434.94369 1005.6128,432.09603 1003.5854,430.01007 C 1001.5581,427.92416 998.90379,426.88119 995.62256,426.88116 C 993.58348,426.88119 991.74364,427.34408 990.10303,428.26984 C 988.46239,429.19564 987.17333,430.39681 986.23584,431.87335 L 980.29443,431.09991 L 985.28662,404.62726 L 1010.9155,404.62726 L 1010.9155,410.67413 L 990.34912,410.67413 L 987.57178,424.5257 C 990.66551,422.36948 993.9116,421.29135 997.31006,421.29132 C 1001.81,421.29135 1005.6069,422.84995 1008.7007,425.9671 C 1011.7944,429.08432 1013.3413,433.09212 1013.3413,437.99054 C 1013.3413,442.65461 1011.9819,446.68586 1009.2632,450.08429 C 1005.9585,454.25617 1001.4468,456.3421 995.72803,456.3421 C 991.04051,456.3421 987.21434,455.0296 984.24951,452.4046 C 981.28466,449.77961 979.59131,446.29914 979.16943,441.9632 L 979.16943,441.9632 z" id="text3266"/>
    <path style="font-size:40px;font-style:normal;font-weight:normal;fill:#000000;fill-opacity:1;stroke:none;stroke-width:1px;stroke-linecap:butt;stroke-linejoin:miter;stroke-opacity:1;font-family:Bitstream Vera Sans" d="M 1000.7905,542.98517 L 1000.7905,530.64532 L 978.43115,530.64532 L 978.43115,524.84454 L 1001.9507,491.44611 L 1007.1187,491.44611 L 1007.1187,524.84454 L 1014.0796,524.84454 L 1014.0796,530.64532 L 1007.1187,530.64532 L 1007.1187,542.98517 L 1000.7905,542.98517 z M 1000.7905,524.84454 L 1000.7905,501.60626 L 984.65381,524.84454 L 1000.7905,524.84454 z" id="text3270"/>
    <path style="font-size:40px;font-style:normal;font-weight:normal;fill:#000000;fill-opacity:1;stroke:none;stroke-width:1px;stroke-linecap:butt;stroke-linejoin:miter;stroke-opacity:1;font-family:Bitstream Vera Sans" d="M 979.38037,619.88098 L 985.7085,619.03723 C 986.43505,622.62318 987.67138,625.20716 989.41748,626.78918 C 991.16356,628.37122 993.29051,629.16224 995.79834,629.16223 C 998.77488,629.16224 1001.2885,628.13099 1003.3394,626.06848 C 1005.3901,624.00599 1006.4155,621.45131 1006.4155,618.40442 C 1006.4155,615.49819 1005.4663,613.1017 1003.5679,611.21497 C 1001.6694,609.32827 999.25535,608.38491 996.32568,608.38489 C 995.13035,608.38491 993.64207,608.61929 991.86084,609.08801 L 992.56396,603.53333 C 992.98582,603.58023 993.32567,603.60367 993.5835,603.60364 C 996.27879,603.60367 998.70457,602.90054 1000.8608,601.49426 C 1003.0171,600.08805 1004.0952,597.92008 1004.0952,594.99036 C 1004.0952,592.67008 1003.31,590.74821 1001.7397,589.22473 C 1000.1694,587.70134 998.14207,586.93962 995.65771,586.93958 C 993.19676,586.93962 991.14598,587.71306 989.50537,589.25989 C 987.86473,590.80681 986.81005,593.12712 986.34131,596.22083 L 980.01318,595.09583 C 980.78662,590.85368 982.54443,587.56657 985.28662,585.2345 C 988.0288,582.90252 991.43895,581.7365 995.51709,581.73645 C 998.32957,581.7365 1000.9194,582.34002 1003.2866,583.547 C 1005.6538,584.75408 1007.4643,586.40056 1008.7183,588.48645 C 1009.9721,590.57243 1010.5991,592.78727 1010.5991,595.13098 C 1010.5991,597.35758 1010.0014,599.38492 1008.8062,601.21301 C 1007.6108,603.04117 1005.8413,604.49429 1003.4976,605.57239 C 1006.5444,606.27554 1008.9116,607.73452 1010.5991,609.94934 C 1012.2866,612.16421 1013.1303,614.93569 1013.1304,618.26379 C 1013.1303,622.7638 1011.4897,626.57825 1008.2085,629.70715 C 1004.9272,632.83606 1000.7788,634.40051 995.76318,634.40051 C 991.23973,634.40051 987.48388,633.05286 984.49561,630.35754 C 981.50732,627.66224 979.80224,624.17005 979.38037,619.88098 L 979.38037,619.88098 z" id="text3274"/>
    <path style="font-size:40px;font-style:normal;font-weight:normal;fill:#000000;fill-opacity:1;stroke:none;stroke-width:1px;stroke-linecap:butt;stroke-linejoin:miter;stroke-opacity:1;font-family:Bitstream Vera Sans" d="M 1013.3237,712.83606 L 1013.3237,718.91809 L 979.25732,718.91809 C 979.21045,717.39465 979.45654,715.92981 979.99561,714.52356 C 980.86279,712.20325 982.25146,709.9181 984.16162,707.66809 C 986.07177,705.4181 988.83153,702.81654 992.44092,699.8634 C 998.04246,695.26968 1001.8276,691.63101 1003.7964,688.94739 C 1005.7651,686.26383 1006.7495,683.72672 1006.7495,681.33606 C 1006.7495,678.82829 1005.853,676.71305 1004.0601,674.99036 C 1002.2671,673.26775 999.92918,672.40642 997.04639,672.40637 C 993.99949,672.40642 991.562,673.32048 989.73389,675.14856 C 987.90575,676.97673 986.97997,679.50797 986.95654,682.74231 L 980.45264,682.07434 C 980.89795,677.22282 982.57372,673.52556 985.47998,670.98254 C 988.38622,668.43963 992.28856,667.16814 997.18701,667.16809 C 1002.1323,667.16814 1006.0464,668.53923 1008.9292,671.28137 C 1011.812,674.0236 1013.2534,677.42204 1013.2534,681.47668 C 1013.2534,683.53922 1012.8315,685.56656 1011.9878,687.55872 C 1011.144,689.55093 1009.7436,691.64859 1007.7866,693.85168 C 1005.8296,696.05483 1002.5776,699.07827 998.03076,702.922 C 994.23387,706.10951 991.79637,708.27162 990.71826,709.40833 C 989.64012,710.54505 988.7495,711.68763 988.04639,712.83606 L 1013.3237,712.83606 z" id="text3280"/>
    <path style="font-size:40px;font-style:normal;font-weight:normal;fill:#000000;fill-opacity:1;stroke:none;stroke-width:1px;stroke-linecap:butt;stroke-linejoin:miter;stroke-opacity:1;font-family:Bitstream Vera Sans" d="M 1005.7476,807.89276 L 999.41943,807.89276 L 999.41943,767.56854 C 997.89598,769.02171 995.89793,770.47483 993.42529,771.92792 C 990.95262,773.38108 988.73192,774.47092 986.76318,775.19745 L 986.76318,769.08026 C 990.30223,767.41624 993.39598,765.40062 996.04443,763.03339 C 998.69285,760.66625 1000.5678,758.36937 1001.6694,756.14276 L 1005.7476,756.14276 L 1005.7476,807.89276 z" id="text3284"/>
    <path style="font-size:40px;font-style:normal;font-weight:normal;fill:#000000;fill-opacity:1;stroke:none;stroke-width:1px;stroke-linecap:butt;stroke-linejoin:miter;stroke-opacity:1;font-family:Bitstream Vera Sans" d="M 167.63504,-29.446697 L 161.30692,-29.446697 L 161.30692,-69.770916 C 159.78346,-68.317752 157.78541,-66.864629 155.31277,-65.411541 C 152.84011,-63.958381 150.61941,-62.868539 148.65067,-62.14201 L 148.65067,-68.259197 C 152.18972,-69.923219 155.28346,-71.938842 157.93192,-74.306072 C 160.58033,-76.673213 162.45533,-78.970085 163.55692,-81.196697 L 167.63504,-81.196697 L 167.63504,-29.446697 z" id="text3288"/>
    <path style="font-size:40px;font-style:normal;font-weight:normal;fill:#000000;fill-opacity:1;stroke:none;stroke-width:1px;stroke-linecap:butt;stroke-linejoin:miter;stroke-opacity:1;font-family:Bitstream Vera Sans" d="M 264.92551,-35.528728 L 264.92551,-29.446697 L 230.8591,-29.446697 C 230.81222,-30.970133 231.05832,-32.434975 231.59738,-33.841228 C 232.46457,-36.161534 233.85324,-38.446688 235.7634,-40.696697 C 237.67354,-42.946684 240.43331,-45.548244 244.04269,-48.501385 C 249.64424,-53.095111 253.42939,-56.733779 255.39816,-59.4174 C 257.36688,-62.100961 258.35126,-64.638068 258.35129,-67.028728 C 258.35126,-69.536501 257.45477,-71.651733 255.66183,-73.374432 C 253.86884,-75.097042 251.53095,-75.958369 248.64816,-75.958416 C 245.60127,-75.958369 243.16377,-75.044308 241.33566,-73.216228 C 239.50753,-71.388062 238.58175,-68.856814 238.55832,-65.622478 L 232.05441,-66.290447 C 232.49972,-71.141968 234.1755,-74.83923 237.08176,-77.382244 C 239.988,-79.925162 243.89034,-81.196645 248.78879,-81.196697 C 253.73408,-81.196645 257.64813,-79.825553 260.53098,-77.083416 C 263.41375,-74.341184 264.85516,-70.942749 264.85519,-66.888103 C 264.85516,-64.825568 264.43328,-62.798226 263.58957,-60.806072 C 262.74579,-58.813855 261.3454,-56.716201 259.3884,-54.513103 C 257.43134,-52.309956 254.17939,-49.286521 249.63254,-45.442791 C 245.83565,-42.255278 243.39815,-40.093171 242.32004,-38.956463 C 241.2419,-37.819736 240.35128,-36.677159 239.64816,-35.528728 L 264.92551,-35.528728 z" id="text3292"/>
    <path style="font-size:40px;font-style:normal;font-weight:normal;fill:#000000;fill-opacity:1;stroke:none;stroke-width:1px;stroke-linecap:butt;stroke-linejoin:miter;stroke-opacity:1;font-family:Bitstream Vera Sans" d="M 318.69644,-43.509197 L 325.02457,-44.352947 C 325.75112,-40.766999 326.98745,-38.183017 328.73355,-36.600994 C 330.47963,-35.018958 332.60658,-34.227943 335.11441,-34.227947 C 338.09095,-34.227943 340.60462,-35.259192 342.65543,-37.321697 C 344.70618,-39.384188 345.73157,-41.938873 345.7316,-44.98576 C 345.73157,-47.891992 344.78235,-50.288474 342.88394,-52.175213 C 340.98548,-54.061907 338.57142,-55.005266 335.64175,-55.005291 C 334.44642,-55.005266 332.95814,-54.770891 331.17691,-54.302166 L 331.88004,-59.856853 C 332.30189,-59.809949 332.64174,-59.786511 332.89957,-59.786541 C 335.59486,-59.786511 338.02064,-60.489635 340.17691,-61.895916 C 342.33313,-63.302133 343.41126,-65.470099 343.41129,-68.399822 C 343.41126,-70.720094 342.6261,-72.641967 341.05582,-74.165447 C 339.48548,-75.688839 337.45814,-76.450557 334.97379,-76.450603 C 332.51283,-76.450557 330.46205,-75.67712 328.82144,-74.130291 C 327.18081,-72.583373 326.12612,-70.263063 325.65738,-67.169353 L 319.32925,-68.294353 C 320.10269,-72.536498 321.8605,-75.823604 324.60269,-78.155682 C 327.34487,-80.487662 330.75502,-81.653677 334.83316,-81.653728 C 337.64564,-81.653677 340.23548,-81.050162 342.60269,-79.843182 C 344.96985,-78.636102 346.78039,-76.989619 348.03433,-74.903728 C 349.2882,-72.817748 349.91516,-70.602907 349.91519,-68.259197 C 349.91516,-66.032599 349.3175,-64.005257 348.12222,-62.177166 C 346.92688,-60.349011 345.15735,-58.895887 342.81363,-57.817791 C 345.86047,-57.114639 348.22766,-55.655656 349.91519,-53.440838 C 351.60266,-51.225973 352.4464,-48.454491 352.44644,-45.126385 C 352.4464,-40.626374 350.80578,-36.811925 347.52457,-33.683025 C 344.24329,-30.554118 340.09485,-28.989667 335.07925,-28.989666 C 330.5558,-28.989667 326.79995,-30.337322 323.81168,-33.032635 C 320.82339,-35.727941 319.11831,-39.220125 318.69644,-43.509197 L 318.69644,-43.509197 z" id="text3296"/>
    <path style="font-size:40px;font-style:normal;font-weight:normal;fill:#000000;fill-opacity:1;stroke:none;stroke-width:1px;stroke-linecap:butt;stroke-linejoin:miter;stroke-opacity:1;font-family:Bitstream Vera Sans" d="M 428.3923,-29.552166 L 428.3923,-41.89201 L 406.03293,-41.89201 L 406.03293,-47.692791 L 429.55246,-81.091228 L 434.72043,-81.091228 L 434.72043,-47.692791 L 441.68137,-47.692791 L 441.68137,-41.89201 L 434.72043,-41.89201 L 434.72043,-29.552166 L 428.3923,-29.552166 z M 428.3923,-47.692791 L 428.3923,-70.931072 L 412.25558,-47.692791 L 428.3923,-47.692791 z" id="text3300"/>
    <path style="font-size:40px;font-style:normal;font-weight:normal;fill:#000000;fill-opacity:1;stroke:none;stroke-width:1px;stroke-linecap:butt;stroke-linejoin:miter;stroke-opacity:1;font-family:Bitstream Vera Sans" d="M 495.62836,-43.843182 L 502.27289,-44.405682 C 502.76507,-41.171296 503.90764,-38.739658 505.70062,-37.11076 C 507.49358,-35.481848 509.65568,-34.667396 512.18695,-34.6674 C 515.2338,-34.667396 517.81193,-35.815832 519.92133,-38.112713 C 522.03067,-40.409578 523.08536,-43.45645 523.08539,-47.253338 C 523.08536,-50.862692 522.07169,-53.710346 520.04437,-55.796307 C 518.017,-57.882217 515.36271,-58.925184 512.08148,-58.925213 C 510.0424,-58.925184 508.20256,-58.462294 506.56195,-57.536541 C 504.92131,-56.610733 503.63225,-55.409563 502.69476,-53.933025 L 496.75336,-54.706463 L 501.74554,-81.179119 L 527.37445,-81.179119 L 527.37445,-75.132244 L 506.80804,-75.132244 L 504.0307,-61.280682 C 507.12444,-63.436899 510.37053,-64.515022 513.76898,-64.515057 C 518.26896,-64.515022 522.06583,-62.95643 525.15961,-59.839275 C 528.25332,-56.722061 529.80019,-52.714253 529.80023,-47.815838 C 529.80019,-43.151763 528.44082,-39.120517 525.72211,-35.722088 C 522.41739,-31.550212 517.90568,-29.464276 512.18695,-29.464275 C 507.49944,-29.464276 503.67327,-30.776775 500.70844,-33.401775 C 497.74359,-36.02677 496.05023,-39.507235 495.62836,-43.843182 L 495.62836,-43.843182 z" id="text3304"/>
    <path style="font-size:40px;font-style:normal;font-weight:normal;fill:#000000;fill-opacity:1;stroke:none;stroke-width:1px;stroke-linecap:butt;stroke-linejoin:miter;stroke-opacity:1;font-family:Bitstream Vera Sans" d="M 615.95868,-68.804119 L 609.66571,-68.311932 C 609.10318,-70.796266 608.30631,-72.600951 607.27509,-73.725994 C 605.56412,-75.530636 603.45475,-76.432979 600.94696,-76.433025 C 598.93132,-76.432979 597.16179,-75.870479 595.63837,-74.745525 C 593.64617,-73.292357 592.07585,-71.171265 590.92743,-68.382244 C 589.77898,-65.593146 589.18133,-61.620494 589.13446,-56.464275 C 590.65789,-58.784559 592.52117,-60.507213 594.7243,-61.632244 C 596.92741,-62.757211 599.236,-63.319711 601.65009,-63.319744 C 605.86881,-63.319711 609.4606,-61.766978 612.42548,-58.661541 C 615.39028,-55.556047 616.8727,-51.542379 616.87274,-46.620525 C 616.8727,-43.386137 616.17544,-40.38028 614.78094,-37.602947 C 613.38638,-34.825599 611.47037,-32.698648 609.0329,-31.222088 C 606.59537,-29.745526 603.82975,-29.007245 600.73602,-29.007244 C 595.46257,-29.007245 591.16179,-30.946696 587.83368,-34.825603 C 584.50555,-38.704501 582.84149,-45.097073 582.84149,-54.003338 C 582.84149,-63.964241 584.68133,-71.206422 588.36102,-75.7299 C 591.57195,-79.667351 595.89616,-81.636099 601.33368,-81.63615 C 605.38834,-81.636099 608.7106,-80.499381 611.30048,-78.225994 C 613.89029,-75.952511 615.44302,-72.811889 615.95868,-68.804119 L 615.95868,-68.804119 z M 590.11884,-46.585369 C 590.11883,-44.405667 590.58172,-42.319732 591.50751,-40.327557 C 592.43328,-38.335361 593.7282,-36.817784 595.39227,-35.774822 C 597.05632,-34.731849 598.80241,-34.210365 600.63055,-34.210369 C 603.30241,-34.210365 605.59928,-35.288489 607.52118,-37.444744 C 609.44302,-39.600984 610.40396,-42.530669 610.40399,-46.233807 C 610.40396,-49.796287 609.45474,-52.602925 607.55634,-54.653728 C 605.65787,-56.704483 603.26725,-57.729873 600.38446,-57.7299 C 597.52507,-57.729873 595.09929,-56.704483 593.10712,-54.653728 C 591.11492,-52.602925 590.11883,-49.913474 590.11884,-46.585369 L 590.11884,-46.585369 z" id="text3308"/>
    <path style="font-size:40px;font-style:normal;font-weight:normal;fill:#ffffff;fill-opacity:1;stroke:none;stroke-width:1px;stroke-linecap:butt;stroke-linejoin:miter;stroke-opacity:1;font-family:Bitstream Vera Sans" d="M 670.88977,-74.675213 L 670.88977,-80.757244 L 704.25305,-80.757244 L 704.25305,-75.835369 C 700.97177,-72.343139 697.71982,-67.702519 694.49719,-61.913494 C 691.27451,-56.124405 688.78428,-50.171286 687.02649,-44.054119 C 685.76085,-39.741609 684.95225,-35.018958 684.60071,-29.88615 L 678.0968,-29.88615 C 678.1671,-33.940834 678.96398,-38.839266 680.48743,-44.581463 C 682.01085,-50.32363 684.19639,-55.860734 687.04407,-61.192791 C 689.8917,-66.524786 692.921,-71.018922 696.13196,-74.675213 L 670.88977,-74.675213 z" id="text3312"/>
    <path style="font-size:40px;font-style:normal;font-weight:normal;fill:#ffffff;fill-opacity:1;stroke:none;stroke-width:1px;stroke-linecap:butt;stroke-linejoin:miter;stroke-opacity:1;font-family:Bitstream Vera Sans" d="M 771.82812,-57.835369 C 769.20311,-58.796278 767.2578,-60.16737 765.99219,-61.94865 C 764.72656,-63.729867 764.09375,-65.862677 764.09375,-68.347088 C 764.09375,-72.097046 765.4414,-75.249386 768.13672,-77.804119 C 770.83202,-80.358756 774.41795,-81.636099 778.89453,-81.63615 C 783.39451,-81.636099 787.0156,-80.329459 789.75781,-77.716228 C 792.49997,-75.102902 793.87106,-71.921265 793.87109,-68.171307 C 793.87106,-65.780646 793.24411,-63.70057 791.99023,-61.931072 C 790.7363,-60.161511 788.832,-58.796278 786.27734,-57.835369 C 789.44138,-56.804092 791.84958,-55.140031 793.50195,-52.843182 C 795.15426,-50.546286 795.98043,-47.804101 795.98047,-44.616619 C 795.98043,-40.210359 794.42184,-36.507237 791.30469,-33.507244 C 788.18747,-30.507243 784.08591,-29.007245 779,-29.007244 C 773.91405,-29.007245 769.81249,-30.513103 766.69531,-33.524822 C 763.57812,-36.536534 762.01953,-40.29239 762.01953,-44.7924 C 762.01953,-48.143945 762.86914,-50.950582 764.56836,-53.212322 C 766.26757,-55.474015 768.68749,-57.015029 771.82812,-57.835369 L 771.82812,-57.835369 z M 770.5625,-68.558025 C 770.56249,-66.120489 771.34764,-64.128304 772.91797,-62.581463 C 774.48827,-61.034557 776.52733,-60.26112 779.03516,-60.26115 C 781.47263,-60.26112 783.47068,-61.028697 785.0293,-62.563885 C 786.58786,-64.099007 787.36716,-65.979864 787.36719,-68.206463 C 787.36716,-70.526735 786.56443,-72.477905 784.95898,-74.059978 C 783.35349,-75.641964 781.35545,-76.432979 778.96484,-76.433025 C 776.55076,-76.432979 774.54686,-75.659542 772.95312,-74.112713 C 771.35936,-72.565795 770.56249,-70.714235 770.5625,-68.558025 L 770.5625,-68.558025 z M 768.52344,-44.757244 C 768.52343,-42.952544 768.95116,-41.206452 769.80664,-39.518963 C 770.6621,-37.831455 771.93358,-36.524816 773.62109,-35.599041 C 775.30858,-34.673255 777.12498,-34.210365 779.07031,-34.210369 C 782.09373,-34.210365 784.58982,-35.18302 786.55859,-37.128338 C 788.52731,-39.073641 789.51169,-41.546295 789.51172,-44.546307 C 789.51169,-47.593164 788.49802,-50.112693 786.4707,-52.1049 C 784.44333,-54.097064 781.90623,-55.093156 778.85938,-55.093182 C 775.8828,-55.093156 773.416,-54.108782 771.45898,-52.140057 C 769.50194,-50.171286 768.52343,-47.710351 768.52344,-44.757244 L 768.52344,-44.757244 z" id="text3316"/>
    <path style="font-size:40px;font-style:normal;font-weight:normal;fill:#ffffff;fill-opacity:1;stroke:none;stroke-width:1px;stroke-linecap:butt;stroke-linejoin:miter;stroke-opacity:1;font-family:Bitstream Vera Sans" d="M 851.57532,-41.804119 L 857.65735,-42.366619 C 858.17296,-39.507234 859.15734,-37.433018 860.61047,-36.143963 C 862.06358,-34.854895 863.92686,-34.210365 866.20032,-34.210369 C 868.14561,-34.210365 869.85069,-34.655677 871.31555,-35.546307 C 872.78037,-36.436925 873.98154,-37.626377 874.91907,-39.114666 C 875.85654,-40.602937 876.64169,-42.6127 877.27454,-45.143963 C 877.90732,-47.675195 878.22372,-50.253317 878.22375,-52.878338 C 878.22372,-53.159565 878.21201,-53.581439 878.1886,-54.143963 C 876.92294,-52.128316 875.19443,-50.493552 873.00305,-49.239666 C 870.81162,-47.985742 868.43858,-47.358789 865.88391,-47.358807 C 861.61827,-47.358789 858.0089,-48.905663 855.05579,-51.999432 C 852.10266,-55.093156 850.6261,-59.171277 850.6261,-64.233807 C 850.6261,-69.46033 852.16711,-73.667357 855.24915,-76.8549 C 858.33117,-80.04235 862.19249,-81.636099 866.83313,-81.63615 C 870.18467,-81.636099 873.24912,-80.733756 876.02649,-78.929119 C 878.8038,-77.124384 880.91317,-74.552121 882.35461,-71.212322 C 883.79598,-67.87244 884.51669,-63.038461 884.51672,-56.710369 C 884.51669,-50.124411 883.80184,-44.880276 882.37219,-40.977947 C 880.94247,-37.075596 878.81552,-34.104896 875.99133,-32.065838 C 873.16709,-30.026775 869.85655,-29.007245 866.05969,-29.007244 C 862.02843,-29.007245 858.73546,-30.126384 856.18079,-32.364666 C 853.62609,-34.602943 852.09094,-37.749424 851.57532,-41.804119 L 851.57532,-41.804119 z M 877.48547,-64.550213 C 877.48544,-68.182987 876.51865,-71.065797 874.58508,-73.19865 C 872.65146,-75.331417 870.32529,-76.397823 867.60657,-76.397869 C 864.79405,-76.397823 862.34483,-75.249386 860.25891,-72.952557 C 858.17296,-70.655641 857.13,-67.679081 857.13,-64.022869 C 857.13,-60.741588 858.12023,-58.075575 860.10071,-56.024822 C 862.08116,-53.974017 864.52452,-52.948627 867.43079,-52.94865 C 870.36045,-52.948627 872.76865,-53.974017 874.6554,-56.024822 C 876.54209,-58.075575 877.48544,-60.917369 877.48547,-64.550213 L 877.48547,-64.550213 z" id="text3320"/>
    <path style="font-size:40px;font-style:normal;font-weight:normal;fill:#ffffff;fill-opacity:1;stroke:none;stroke-width:1px;stroke-linecap:butt;stroke-linejoin:miter;stroke-opacity:1;font-family:Bitstream Vera Sans" d="M 1110.1467,-41.804119 L 1116.2288,-42.366619 C 1116.7444,-39.507234 1117.7287,-37.433018 1119.1819,-36.143963 C 1120.635,-34.854895 1122.4983,-34.210365 1124.7717,-34.210369 C 1126.717,-34.210365 1128.4221,-34.655677 1129.887,-35.546307 C 1131.3518,-36.436925 1132.553,-37.626377 1133.4905,-39.114666 C 1134.428,-40.602937 1135.2131,-42.6127 1135.8459,-45.143963 C 1136.4787,-47.675195 1136.7951,-50.253317 1136.7952,-52.878338 C 1136.7951,-53.159565 1136.7834,-53.581439 1136.76,-54.143963 C 1135.4944,-52.128316 1133.7658,-50.493552 1131.5745,-49.239666 C 1129.383,-47.985742 1127.01,-47.358789 1124.4553,-47.358807 C 1120.1897,-47.358789 1116.5803,-48.905663 1113.6272,-51.999432 C 1110.6741,-55.093156 1109.1975,-59.171277 1109.1975,-64.233807 C 1109.1975,-69.46033 1110.7385,-73.667357 1113.8206,-76.8549 C 1116.9026,-80.04235 1120.7639,-81.636099 1125.4045,-81.63615 C 1128.7561,-81.636099 1131.8205,-80.733756 1134.5979,-78.929119 C 1137.3752,-77.124384 1139.4846,-74.552121 1140.926,-71.212322 C 1142.3674,-67.87244 1143.0881,-63.038461 1143.0881,-56.710369 C 1143.0881,-50.124411 1142.3733,-44.880276 1140.9436,-40.977947 C 1139.5139,-37.075596 1137.3869,-34.104896 1134.5627,-32.065838 C 1131.7385,-30.026775 1128.428,-29.007245 1124.6311,-29.007244 C 1120.5998,-29.007245 1117.3069,-30.126384 1114.7522,-32.364666 C 1112.1975,-34.602943 1110.6623,-37.749424 1110.1467,-41.804119 L 1110.1467,-41.804119 z M 1136.0569,-64.550213 C 1136.0569,-68.182987 1135.0901,-71.065797 1133.1565,-73.19865 C 1131.2229,-75.331417 1128.8967,-76.397823 1126.178,-76.397869 C 1123.3655,-76.397823 1120.9162,-75.249386 1118.8303,-72.952557 C 1116.7444,-70.655641 1115.7014,-67.679081 1115.7014,-64.022869 C 1115.7014,-60.741588 1116.6916,-58.075575 1118.6721,-56.024822 C 1120.6526,-53.974017 1123.0959,-52.948627 1126.0022,-52.94865 C 1128.9319,-52.948627 1131.3401,-53.974017 1133.2268,-56.024822 C 1135.1135,-58.075575 1136.0569,-60.917369 1136.0569,-64.550213 L 1136.0569,-64.550213 z" id="text3324"/>
    <path style="font-size:40px;font-style:normal;font-weight:normal;fill:#ffffff;fill-opacity:1;stroke:none;stroke-width:1px;stroke-linecap:butt;stroke-linejoin:miter;stroke-opacity:1;font-family:Bitstream Vera Sans" d="M 1208.3839,-57.835369 C 1205.7589,-58.796278 1203.8136,-60.16737 1202.548,-61.94865 C 1201.2823,-63.729867 1200.6495,-65.862677 1200.6495,-68.347088 C 1200.6495,-72.097046 1201.9972,-75.249386 1204.6925,-77.804119 C 1207.3878,-80.358756 1210.9737,-81.636099 1215.4503,-81.63615 C 1219.9503,-81.636099 1223.5714,-80.329459 1226.3136,-77.716228 C 1229.0558,-75.102902 1230.4268,-71.921265 1230.4269,-68.171307 C 1230.4268,-65.780646 1229.7999,-63.70057 1228.546,-61.931072 C 1227.2921,-60.161511 1225.3878,-58.796278 1222.8331,-57.835369 C 1225.9972,-56.804092 1228.4054,-55.140031 1230.0577,-52.843182 C 1231.71,-50.546286 1232.5362,-47.804101 1232.5363,-44.616619 C 1232.5362,-40.210359 1230.9776,-36.507237 1227.8605,-33.507244 C 1224.7433,-30.507243 1220.6417,-29.007245 1215.5558,-29.007244 C 1210.4698,-29.007245 1206.3683,-30.513103 1203.2511,-33.524822 C 1200.1339,-36.536534 1198.5753,-40.29239 1198.5753,-44.7924 C 1198.5753,-48.143945 1199.4249,-50.950582 1201.1241,-53.212322 C 1202.8234,-55.474015 1205.2433,-57.015029 1208.3839,-57.835369 L 1208.3839,-57.835369 z M 1207.1183,-68.558025 C 1207.1183,-66.120489 1207.9034,-64.128304 1209.4738,-62.581463 C 1211.0441,-61.034557 1213.0831,-60.26112 1215.5909,-60.26115 C 1218.0284,-60.26112 1220.0265,-61.028697 1221.5851,-62.563885 C 1223.1436,-64.099007 1223.9229,-65.979864 1223.923,-68.206463 C 1223.9229,-70.526735 1223.1202,-72.477905 1221.5148,-74.059978 C 1219.9093,-75.641964 1217.9112,-76.432979 1215.5206,-76.433025 C 1213.1065,-76.432979 1211.1026,-75.659542 1209.5089,-74.112713 C 1207.9151,-72.565795 1207.1183,-70.714235 1207.1183,-68.558025 L 1207.1183,-68.558025 z M 1205.0792,-44.757244 C 1205.0792,-42.952544 1205.5069,-41.206452 1206.3624,-39.518963 C 1207.2179,-37.831455 1208.4894,-36.524816 1210.1769,-35.599041 C 1211.8644,-34.673255 1213.6808,-34.210365 1215.6261,-34.210369 C 1218.6495,-34.210365 1221.1456,-35.18302 1223.1144,-37.128338 C 1225.0831,-39.073641 1226.0675,-41.546295 1226.0675,-44.546307 C 1226.0675,-47.593164 1225.0538,-50.112693 1223.0265,-52.1049 C 1220.9991,-54.097064 1218.462,-55.093156 1215.4152,-55.093182 C 1212.4386,-55.093156 1209.9718,-54.108782 1208.0148,-52.140057 C 1206.0577,-50.171286 1205.0792,-47.710351 1205.0792,-44.757244 L 1205.0792,-44.757244 z" id="text3328"/>
    <path style="font-size:40px;font-style:normal;font-weight:normal;fill:#ffffff;fill-opacity:1;stroke:none;stroke-width:1px;stroke-linecap:butt;stroke-linejoin:miter;stroke-opacity:1;font-family:Bitstream Vera Sans" d="M 1287.7676,-74.675213 L 1287.7676,-80.757244 L 1321.1309,-80.757244 L 1321.1309,-75.835369 C 1317.8496,-72.343139 1314.5976,-67.702519 1311.375,-61.913494 C 1308.1523,-56.124405 1305.6621,-50.171286 1303.9043,-44.054119 C 1302.6387,-39.741609 1301.8301,-35.018958 1301.4785,-29.88615 L 1294.9746,-29.88615 C 1295.0449,-33.940834 1295.8418,-38.839266 1297.3652,-44.581463 C 1298.8887,-50.32363 1301.0742,-55.860734 1303.9219,-61.192791 C 1306.7695,-66.524786 1309.7988,-71.018922 1313.0098,-74.675213 L 1287.7676,-74.675213 z" id="text3332"/>
    <path style="font-size:40px;font-style:normal;font-weight:normal;fill:#000000;fill-opacity:1;stroke:none;stroke-width:1px;stroke-linecap:butt;stroke-linejoin:miter;stroke-opacity:1;font-family:Bitstream Vera Sans" d="M 1409.2817,-68.804119 L 1402.9888,-68.311932 C 1402.4262,-70.796266 1401.6294,-72.600951 1400.5981,-73.725994 C 1398.8872,-75.530636 1396.7778,-76.432979 1394.27,-76.433025 C 1392.2544,-76.432979 1390.4848,-75.870479 1388.9614,-74.745525 C 1386.9692,-73.292357 1385.3989,-71.171265 1384.2505,-68.382244 C 1383.102,-65.593146 1382.5044,-61.620494 1382.4575,-56.464275 C 1383.9809,-58.784559 1385.8442,-60.507213 1388.0474,-61.632244 C 1390.2505,-62.757211 1392.5591,-63.319711 1394.9731,-63.319744 C 1399.1919,-63.319711 1402.7837,-61.766978 1405.7485,-58.661541 C 1408.7133,-55.556047 1410.1958,-51.542379 1410.1958,-46.620525 C 1410.1958,-43.386137 1409.4985,-40.38028 1408.104,-37.602947 C 1406.7094,-34.825599 1404.7934,-32.698648 1402.356,-31.222088 C 1399.9184,-29.745526 1397.1528,-29.007245 1394.0591,-29.007244 C 1388.7856,-29.007245 1384.4849,-30.946696 1381.1567,-34.825603 C 1377.8286,-38.704501 1376.1645,-45.097073 1376.1646,-54.003338 C 1376.1645,-63.964241 1378.0044,-71.206422 1381.6841,-75.7299 C 1384.895,-79.667351 1389.2192,-81.636099 1394.6567,-81.63615 C 1398.7114,-81.636099 1402.0337,-80.499381 1404.6235,-78.225994 C 1407.2133,-75.952511 1408.7661,-72.811889 1409.2817,-68.804119 L 1409.2817,-68.804119 z M 1383.4419,-46.585369 C 1383.4419,-44.405667 1383.9048,-42.319732 1384.8306,-40.327557 C 1385.7563,-38.335361 1387.0513,-36.817784 1388.7153,-35.774822 C 1390.3794,-34.731849 1392.1255,-34.210365 1393.9536,-34.210369 C 1396.6255,-34.210365 1398.9223,-35.288489 1400.8442,-37.444744 C 1402.7661,-39.600984 1403.727,-42.530669 1403.7271,-46.233807 C 1403.727,-49.796287 1402.7778,-52.602925 1400.8794,-54.653728 C 1398.9809,-56.704483 1396.5903,-57.729873 1393.7075,-57.7299 C 1390.8481,-57.729873 1388.4223,-56.704483 1386.4302,-54.653728 C 1384.438,-52.602925 1383.4419,-49.913474 1383.4419,-46.585369 L 1383.4419,-46.585369 z" id="text3336"/>
    <path style="font-size:40px;font-style:normal;font-weight:normal;fill:#000000;fill-opacity:1;stroke:none;stroke-width:1px;stroke-linecap:butt;stroke-linejoin:miter;stroke-opacity:1;font-family:Bitstream Vera Sans" d="M 1465.1501,-43.843182 L 1471.7947,-44.405682 C 1472.2869,-41.171296 1473.4294,-38.739658 1475.2224,-37.11076 C 1477.0154,-35.481848 1479.1775,-34.667396 1481.7087,-34.6674 C 1484.7556,-34.667396 1487.3337,-35.815832 1489.4431,-38.112713 C 1491.5525,-40.409578 1492.6071,-43.45645 1492.6072,-47.253338 C 1492.6071,-50.862692 1491.5935,-53.710346 1489.5662,-55.796307 C 1487.5388,-57.882217 1484.8845,-58.925184 1481.6033,-58.925213 C 1479.5642,-58.925184 1477.7243,-58.462294 1476.0837,-57.536541 C 1474.4431,-56.610733 1473.154,-55.409563 1472.2166,-53.933025 L 1466.2751,-54.706463 L 1471.2673,-81.179119 L 1496.8962,-81.179119 L 1496.8962,-75.132244 L 1476.3298,-75.132244 L 1473.5525,-61.280682 C 1476.6462,-63.436899 1479.8923,-64.515022 1483.2908,-64.515057 C 1487.7907,-64.515022 1491.5876,-62.95643 1494.6814,-59.839275 C 1497.7751,-56.722061 1499.322,-52.714253 1499.322,-47.815838 C 1499.322,-43.151763 1497.9626,-39.120517 1495.2439,-35.722088 C 1491.9392,-31.550212 1487.4275,-29.464276 1481.7087,-29.464275 C 1477.0212,-29.464276 1473.1951,-30.776775 1470.2302,-33.401775 C 1467.2654,-36.02677 1465.572,-39.507235 1465.1501,-43.843182 L 1465.1501,-43.843182 z" id="text3340"/>
    <path style="font-size:40px;font-style:normal;font-weight:normal;fill:#000000;fill-opacity:1;stroke:none;stroke-width:1px;stroke-linecap:butt;stroke-linejoin:miter;stroke-opacity:1;font-family:Bitstream Vera Sans" d="M 1575.624,-29.552166 L 1575.624,-41.89201 L 1553.2646,-41.89201 L 1553.2646,-47.692791 L 1576.7842,-81.091228 L 1581.9521,-81.091228 L 1581.9521,-47.692791 L 1588.9131,-47.692791 L 1588.9131,-41.89201 L 1581.9521,-41.89201 L 1581.9521,-29.552166 L 1575.624,-29.552166 z M 1575.624,-47.692791 L 1575.624,-70.931072 L 1559.4873,-47.692791 L 1575.624,-47.692791 z" id="text3344"/>
    <path style="font-size:40px;font-style:normal;font-weight:normal;fill:#000000;fill-opacity:1;stroke:none;stroke-width:1px;stroke-linecap:butt;stroke-linejoin:miter;stroke-opacity:1;font-family:Bitstream Vera Sans" d="M 1641.0667,-43.509197 L 1647.3948,-44.352947 C 1648.1213,-40.766999 1649.3577,-38.183017 1651.1038,-36.600994 C 1652.8498,-35.018958 1654.9768,-34.227943 1657.4846,-34.227947 C 1660.4612,-34.227943 1662.9748,-35.259192 1665.0256,-37.321697 C 1667.0764,-39.384188 1668.1018,-41.938873 1668.1018,-44.98576 C 1668.1018,-47.891992 1667.1526,-50.288474 1665.2542,-52.175213 C 1663.3557,-54.061907 1660.9416,-55.005266 1658.012,-55.005291 C 1656.8166,-55.005266 1655.3284,-54.770891 1653.5471,-54.302166 L 1654.2502,-59.856853 C 1654.6721,-59.809949 1655.0119,-59.786511 1655.2698,-59.786541 C 1657.9651,-59.786511 1660.3908,-60.489635 1662.5471,-61.895916 C 1664.7033,-63.302133 1665.7815,-65.470099 1665.7815,-68.399822 C 1665.7815,-70.720094 1664.9963,-72.641967 1663.426,-74.165447 C 1661.8557,-75.688839 1659.8283,-76.450557 1657.344,-76.450603 C 1654.883,-76.450557 1652.8323,-75.67712 1651.1917,-74.130291 C 1649.551,-72.583373 1648.4963,-70.263063 1648.0276,-67.169353 L 1641.6995,-68.294353 C 1642.4729,-72.536498 1644.2307,-75.823604 1646.9729,-78.155682 C 1649.7151,-80.487662 1653.1252,-81.653677 1657.2034,-81.653728 C 1660.0158,-81.653677 1662.6057,-81.050162 1664.9729,-79.843182 C 1667.3401,-78.636102 1669.1506,-76.989619 1670.4045,-74.903728 C 1671.6584,-72.817748 1672.2854,-70.602907 1672.2854,-68.259197 C 1672.2854,-66.032599 1671.6877,-64.005257 1670.4924,-62.177166 C 1669.2971,-60.349011 1667.5276,-58.895887 1665.1838,-57.817791 C 1668.2307,-57.114639 1670.5979,-55.655656 1672.2854,-53.440838 C 1673.9729,-51.225973 1674.8166,-48.454491 1674.8167,-45.126385 C 1674.8166,-40.626374 1673.176,-36.811925 1669.8948,-33.683025 C 1666.6135,-30.554118 1662.4651,-28.989667 1657.4495,-28.989666 C 1652.926,-28.989667 1649.1702,-30.337322 1646.1819,-33.032635 C 1643.1936,-35.727941 1641.4885,-39.220125 1641.0667,-43.509197 L 1641.0667,-43.509197 z" id="text3348"/>
    <path style="font-size:40px;font-style:normal;font-weight:normal;fill:#000000;fill-opacity:1;stroke:none;stroke-width:1px;stroke-linecap:butt;stroke-linejoin:miter;stroke-opacity:1;font-family:Bitstream Vera Sans" d="M 1763.9846,-35.528728 L 1763.9846,-29.446697 L 1729.9182,-29.446697 C 1729.8713,-30.970133 1730.1174,-32.434975 1730.6565,-33.841228 C 1731.5237,-36.161534 1732.9123,-38.446688 1734.8225,-40.696697 C 1736.7327,-42.946684 1739.4924,-45.548244 1743.1018,-48.501385 C 1748.7033,-53.095111 1752.4885,-56.733779 1754.4573,-59.4174 C 1756.426,-62.100961 1757.4104,-64.638068 1757.4104,-67.028728 C 1757.4104,-69.536501 1756.5139,-71.651733 1754.7209,-73.374432 C 1752.928,-75.097042 1750.5901,-75.958369 1747.7073,-75.958416 C 1744.6604,-75.958369 1742.2229,-75.044308 1740.3948,-73.216228 C 1738.5666,-71.388062 1737.6409,-68.856814 1737.6174,-65.622478 L 1731.1135,-66.290447 C 1731.5588,-71.141968 1733.2346,-74.83923 1736.1409,-77.382244 C 1739.0471,-79.925162 1742.9494,-81.196645 1747.8479,-81.196697 C 1752.7932,-81.196645 1756.7072,-79.825553 1759.5901,-77.083416 C 1762.4729,-74.341184 1763.9143,-70.942749 1763.9143,-66.888103 C 1763.9143,-64.825568 1763.4924,-62.798226 1762.6487,-60.806072 C 1761.8049,-58.813855 1760.4045,-56.716201 1758.4475,-54.513103 C 1756.4904,-52.309956 1753.2385,-49.286521 1748.6917,-45.442791 C 1744.8948,-42.255278 1742.4573,-40.093171 1741.3792,-38.956463 C 1740.301,-37.819736 1739.4104,-36.677159 1738.7073,-35.528728 L 1763.9846,-35.528728 z" id="text3352"/>
    <path style="font-size:40px;font-style:normal;font-weight:normal;fill:#000000;fill-opacity:1;stroke:none;stroke-width:1px;stroke-linecap:butt;stroke-linejoin:miter;stroke-opacity:1;font-family:Bitstream Vera Sans" d="M 1843.2614,-29.446697 L 1836.9332,-29.446697 L 1836.9332,-69.770916 C 1835.4098,-68.317752 1833.4117,-66.864629 1830.9391,-65.411541 C 1828.4664,-63.958381 1826.2457,-62.868539 1824.277,-62.14201 L 1824.277,-68.259197 C 1827.816,-69.923219 1830.9098,-71.938842 1833.5582,-74.306072 C 1836.2066,-76.673213 1838.0816,-78.970085 1839.1832,-81.196697 L 1843.2614,-81.196697 L 1843.2614,-29.446697 z" id="text3356"/>
  </g>
</svg>